<svg xmlns="http://www.w3.org/2000/svg" width="30" height="30" viewBox="0 0 30 30"><rect width="100%" height="100%" fill="#DDDDDD"/><path fill="#999999" d="M10.23 12.68H7.34v1.92h2.44v.97H7.34v2.65H6.12v-6.51h4.11zm2.85.85q.52 0 .94.17.42.16.72.47t.46.75.16.98q0 .55-.16.99t-.46.75-.72.48-.94.17q-.51 0-.94-.17-.42-.17-.72-.48t-.46-.75q-.17-.44-.17-.99 0-.54.17-.98.16-.44.46-.75t.72-.47q.43-.17.94-.17m0 3.9q.58 0 .86-.38.27-.39.27-1.14t-.27-1.14q-.28-.39-.86-.39t-.86.4q-.28.39-.28 1.13t.28 1.13.86.39m4.67.86q-.6 0-.92-.34-.33-.34-.33-.94v-2.57h-.47q-.09 0-.15-.06t-.06-.18v-.44l.74-.12.23-1.26q.03-.09.09-.14t.16-.05h.58v1.45h1.23v.8h-1.23v2.5q0 .21.1.33.11.13.29.13.11 0 .18-.03.07-.02.12-.05t.09-.05q.04-.03.08-.03.05 0 .08.03.03.02.07.07l.33.54q-.24.2-.56.31-.31.1-.65.1m3.85-4.76q.52 0 .94.17.42.16.72.47t.46.75.16.98q0 .55-.16.99t-.46.75-.72.48-.94.17q-.51 0-.94-.17-.42-.17-.72-.48t-.46-.75q-.17-.44-.17-.99 0-.54.17-.98.16-.44.46-.75t.72-.47q.43-.17.94-.17m0 3.9q.58 0 .86-.38.27-.39.27-1.14t-.27-1.14q-.28-.39-.86-.39t-.86.4q-.28.39-.28 1.13t.28 1.13.86.39"/></svg>